<svg width="159" height="26" viewBox="0 0 159 26" fill="none" xmlns="http://www.w3.org/2000/svg">
<path fill-rule="evenodd" clip-rule="evenodd" d="M0 14.8432V12.2485H9.94121V14.8432H6.16581V25.0756H2.78588V14.8432H0ZM11.7581 25.0374V12.3312H15.138V17.508H20.5869V12.3312H23.9053V25.0374H20.5869V19.6375H15.138V25.0374H11.7581ZM26.384 24.9818V12.2485H36.79V14.9346H29.6819V17.3389H35.0079V19.7432H29.6819V22.6171H37.1178V24.9818H26.384Z" fill="#285141"/>
<path d="M52.2545 25.2519C49.6899 25.2519 47.4757 24.7402 45.6116 23.7168C43.7595 22.6934 42.3288 21.2618 41.3196 19.4219C40.3223 17.582 39.8236 15.4427 39.8236 13.0039C39.8236 10.5652 40.3223 8.42593 41.3196 6.58601C42.3288 4.7461 43.7595 3.31445 45.6116 2.29106C47.4757 1.26767 49.6899 0.755981 52.2545 0.755981C55.1989 0.755981 57.6685 1.42554 59.6631 2.76465C61.6696 4.10376 63.0825 5.91646 63.9017 8.20274L59.022 9.44387C58.5471 8.01766 57.7457 6.91263 56.6177 6.12876C55.4898 5.334 54.0354 4.93662 52.2545 4.93662C50.6279 4.93662 49.2685 5.26867 48.1762 5.93279C47.0957 6.5969 46.2824 7.53319 45.7363 8.74165C45.1901 9.95012 44.9171 11.3709 44.9171 13.0039C44.9171 14.637 45.1901 16.0578 45.7363 17.2662C46.2824 18.4747 47.0957 19.411 48.1762 20.0751C49.2685 20.7392 50.6279 21.0713 52.2545 21.0713C54.0354 21.0713 55.4898 20.6739 56.6177 19.8791C57.7457 19.0844 58.5471 17.9793 59.022 16.564L63.9017 17.8051C63.0825 20.0914 61.6696 21.9041 59.6631 23.2432C57.6685 24.5824 55.1989 25.2519 52.2545 25.2519Z" fill="#285141"/>
<path fill-rule="evenodd" clip-rule="evenodd" d="M45.1896 24.357L45.1887 24.3565C43.1987 23.257 41.6634 21.717 40.5875 19.7556L40.5866 19.754L40.5858 19.7524C39.5225 17.7909 39.0042 15.5333 39.0042 13C39.0042 10.4668 39.5225 8.20922 40.5858 6.24769L40.5866 6.2461L40.5875 6.24451C41.6634 4.28306 43.1987 2.74311 45.1887 1.64361L45.1896 1.64307L45.1906 1.64252C47.2032 0.5376 49.5686 0.000732422 52.2544 0.000732422C55.3383 0.000732422 57.9859 0.703923 60.1461 2.15383C62.2994 3.59115 63.8106 5.53776 64.6801 7.96431L64.9481 8.71239L58.4715 10.3597L58.2383 9.65939C57.8059 8.36096 57.0935 7.39828 56.1227 6.72365L56.1206 6.72215L56.1184 6.72062C55.1665 6.04988 53.9011 5.68407 52.2544 5.68407C50.7508 5.68407 49.5592 5.98996 48.6305 6.55408C47.6981 7.12768 46.9834 7.94071 46.4932 9.0254C45.9971 10.1231 45.7364 11.442 45.7364 13C45.7364 14.5581 45.9971 15.877 46.4932 16.9747C46.9833 18.0593 47.6981 18.8723 48.6304 19.4459C49.5591 20.0101 50.7507 20.316 52.2544 20.316C53.9011 20.316 55.1665 19.9502 56.1184 19.2795C57.0938 18.5922 57.8068 17.6265 58.2388 16.3392L58.4731 15.6408L64.9481 17.2877L64.6801 18.0358C63.8106 20.4623 62.2994 22.4089 60.1461 23.8463C57.9859 25.2962 55.3383 25.9994 52.2544 25.9994C49.5686 25.9994 47.2032 25.4625 45.1906 24.3576L45.1896 24.357Z" fill="#285141"/>
<path d="M80.5262 25.2526C78.4603 25.2526 76.6438 24.8715 75.0766 24.1095C73.5093 23.3365 72.2864 22.2532 71.4079 20.8597C70.5293 19.4661 70.09 17.8276 70.09 15.9441V1.27924L75.0053 1.24658V15.9115C75.0053 16.6845 75.1478 17.3867 75.4327 18.0181C75.7177 18.6496 76.1095 19.1939 76.6082 19.6512C77.1187 20.1084 77.7064 20.4623 78.3713 20.7127C79.048 20.9522 79.7663 21.072 80.5262 21.072C81.3098 21.072 82.034 20.9468 82.6989 20.6964C83.3757 20.4459 83.9634 20.0921 84.462 19.6349C84.9607 19.1776 85.3466 18.6333 85.6196 18.0018C85.9046 17.3703 86.0471 16.6736 86.0471 15.9115V1.24658H90.9624V15.9441C90.9624 17.8276 90.5231 19.4661 89.6445 20.8597C88.7659 22.2532 87.543 23.3365 85.9758 24.1095C84.4086 24.8715 82.5921 25.2526 80.5262 25.2526Z" fill="#285141"/>
<path fill-rule="evenodd" clip-rule="evenodd" d="M74.6914 24.766L74.6893 24.7649C72.9901 23.9268 71.6552 22.7454 70.6994 21.2295C69.7373 19.7035 69.2715 17.9307 69.2715 15.9379V0.52707L75.8256 0.483521V15.9052C75.8256 16.5925 75.952 17.1954 76.1908 17.7246C76.4362 18.2686 76.7684 18.7277 77.1851 19.1106C77.6169 19.4966 78.112 19.7951 78.6754 20.0084C79.2513 20.2111 79.8664 20.3144 80.5271 20.3144C81.2136 20.3144 81.831 20.2051 82.3885 19.9951L82.3909 19.9942L82.3932 19.9933C82.9715 19.7794 83.4655 19.4807 83.8835 19.0973C84.2992 18.7162 84.6249 18.2596 84.8589 17.7186L84.8611 17.7134L84.8634 17.7083C85.1028 17.1778 85.2286 16.5801 85.2286 15.9052V0.488985H91.7827V15.9379C91.7827 17.9307 91.3169 19.7035 90.3548 21.2295C89.399 22.7454 88.064 23.9268 86.3649 24.7649L86.3627 24.766L86.3606 24.767C84.6571 25.5954 82.7047 25.9977 80.5271 25.9977C78.3495 25.9977 76.3971 25.5954 74.6936 24.767L74.6914 24.766Z" fill="#285141"/>
<path d="M98.3057 24.7627V1.24658H103.15V20.6147H114.192V24.7627H98.3057Z" fill="#285141"/>
<path fill-rule="evenodd" clip-rule="evenodd" d="M97.4861 25.5023V0.483521H103.969V19.8516H115.011V25.5023H97.4861Z" fill="#285141"/>
<path d="M121.31 24.7627V5.39456H113.224V1.24658H134.239V5.39456H126.154V24.7627H121.31Z" fill="#285141"/>
<path fill-rule="evenodd" clip-rule="evenodd" d="M120.49 25.5178V6.1497H112.405V0.499023H135.058V6.1497H126.973V25.5178H120.49ZM144.352 25.5178V6.1497H137.203V0.499023H158.92V6.1497H150.835V25.5178H144.352Z" fill="#285141"/>
</svg>
