<svg width="60" height="61" viewBox="0 0 60 61" fill="none" xmlns="http://www.w3.org/2000/svg">
<g clip-path="url(#clip0_1_1609)">
<path fill-rule="evenodd" clip-rule="evenodd" d="M34.9834 3.72149L32.1888 2.31453C30.9159 1.67367 29.4146 1.67367 28.1417 2.31453L25.347 3.72149C24.5506 4.12247 23.6686 4.32379 22.777 4.30809L19.6487 4.25301C18.2237 4.22792 16.8711 4.87928 16.0023 6.00898L14.0949 8.48915C13.5513 9.196 12.844 9.76007 12.0339 10.1328L9.19146 11.4405C7.89676 12.0361 6.96075 13.2098 6.66813 14.6046L6.02572 17.6668C5.84263 18.5395 5.45009 19.3546 4.88193 20.0419L2.88838 22.4534C1.98034 23.5518 1.64628 25.0154 1.98782 26.399L2.73764 29.4366C2.95134 30.3024 2.95134 31.2071 2.73764 32.0728L1.98782 35.1104C1.64628 36.4941 1.98034 37.9577 2.88838 39.0561L4.88193 41.4676C5.45009 42.1548 5.84263 42.9699 6.02572 43.8427L6.66813 46.9048C6.96075 48.2996 7.89676 49.4733 9.19146 50.069L12.0339 51.3767C12.844 51.7494 13.5513 52.3134 14.0949 53.0203L16.0023 55.5005C16.8711 56.6301 18.2237 57.2815 19.6487 57.2564L22.777 57.2013C23.6686 57.1856 24.5506 57.387 25.347 57.7879L28.1417 59.1949C29.4146 59.8358 30.9159 59.8358 32.1888 59.1949L34.9834 57.7879C35.7799 57.387 36.6619 57.1856 37.5535 57.2013L40.6818 57.2564C42.1067 57.2815 43.4593 56.6301 44.3281 55.5005L46.2355 53.0203C46.7792 52.3134 47.4865 51.7494 48.2966 51.3767L51.139 50.069C52.4337 49.4733 53.3697 48.2996 53.6623 46.9048L54.3047 43.8427C54.4878 42.9699 54.8804 42.1548 55.4485 41.4676L57.4421 39.0561C58.3501 37.9577 58.6842 36.4941 58.3426 35.1104L57.5928 32.0728C57.3791 31.2071 57.3791 30.3024 57.5928 29.4366L58.3426 26.399C58.6842 25.0154 58.3501 23.5518 57.4421 22.4534L55.4485 20.0419C54.8804 19.3546 54.4878 18.5395 54.3047 17.6668L53.6623 14.6046C53.3697 13.2098 52.4337 12.0361 51.139 11.4405L48.2966 10.1328C47.4865 9.76007 46.7792 9.196 46.2355 8.48915L44.3281 6.00898C43.4593 4.87929 42.1067 4.22792 40.6818 4.25301L37.5535 4.30809C36.6619 4.32379 35.7799 4.12247 34.9834 3.72149ZM32.4136 1.86793C30.9993 1.15587 29.3312 1.15587 27.9168 1.86793L25.1222 3.27489C24.3981 3.63942 23.5963 3.82244 22.7858 3.80817L19.6575 3.75308C18.0742 3.7252 16.5713 4.44895 15.606 5.70416L13.6986 8.18434C13.2044 8.82693 12.5614 9.33972 11.8249 9.67853L8.98249 10.9862C7.54393 11.6481 6.50391 12.9522 6.17879 14.502L5.53637 17.5641C5.36993 18.3575 5.01308 19.0985 4.49657 19.7233L2.50302 22.1348C1.49408 23.3552 1.1229 24.9815 1.50239 26.5188L2.25221 29.5565C2.44648 30.3435 2.44648 31.1659 2.25221 31.953L1.50239 34.9906C1.1229 36.528 1.49408 38.1542 2.50302 39.3747L4.49657 41.7861C5.01308 42.4109 5.36993 43.1519 5.53637 43.9453L6.17879 47.0075C6.50391 48.5572 7.54393 49.8614 8.98249 50.5232L11.8249 51.8309C12.5614 52.1697 13.2044 52.6825 13.6986 53.3251L15.606 55.8053C16.5713 57.0605 18.0742 57.7842 19.6575 57.7564L22.7858 57.7013C23.5963 57.687 24.3981 57.87 25.1222 58.2345L27.9168 59.6415C29.3312 60.3536 30.9993 60.3536 32.4136 59.6415L35.2083 58.2345C35.9323 57.87 36.7341 57.687 37.5447 57.7013L40.673 57.7564C42.2563 57.7842 43.7591 57.0605 44.7245 55.8053L46.6319 53.3251C47.1261 52.6825 47.7691 52.1697 48.5055 51.8309L51.348 50.5232C52.7865 49.8614 53.8265 48.5572 54.1517 47.0075L54.7941 43.9453C54.9605 43.1519 55.3174 42.4109 55.8339 41.7861L57.8274 39.3747C58.8364 38.1542 59.2076 36.528 58.8281 34.9906L58.0783 31.953C57.884 31.1659 57.884 30.3435 58.0783 29.5565L58.8281 26.5188C59.2076 24.9815 58.8364 23.3552 57.8274 22.1348L55.8339 19.7233C55.3174 19.0985 54.9605 18.3575 54.7941 17.5641L54.1517 14.502C53.8265 12.9522 52.7865 11.6481 51.348 10.9862L48.5055 9.67853C47.7691 9.33972 47.1261 8.82693 46.6319 8.18434L44.7245 5.70416C43.7591 4.44895 42.2563 3.7252 40.673 3.75308L37.5447 3.80817C36.7341 3.82244 35.9323 3.63942 35.2083 3.27489L32.4136 1.86793Z" fill="#285141"/>
<path fill-rule="evenodd" clip-rule="evenodd" d="M32.2979 15.4876L32.1888 15.4327C30.9159 14.7918 29.4146 14.7918 28.1417 15.4327L28.0326 15.4876C27.2361 15.8886 26.3541 16.0899 25.4625 16.0742L25.3404 16.0721C23.9155 16.047 22.5629 16.6984 21.6941 17.828L21.6196 17.9249C21.076 18.6317 20.3687 19.1958 19.5586 19.5685L19.4476 19.6196C18.1529 20.2152 17.2169 21.3889 16.9243 22.7837L16.8992 22.9033C16.7161 23.776 16.3236 24.5911 15.7554 25.2784L15.6776 25.3725C14.7695 26.4709 14.4355 27.9345 14.777 29.3182L14.8063 29.4368C15.02 30.3025 15.02 31.2072 14.8063 32.0729L14.777 32.1915C14.4355 33.5751 14.7695 35.0387 15.6776 36.1371L15.7554 36.2313C16.3236 36.9186 16.7161 37.7337 16.8992 38.6064L16.9243 38.726C17.2169 40.1207 18.1529 41.2945 19.4476 41.8901L19.5586 41.9412C20.3687 42.3139 21.076 42.8779 21.6196 43.5848L21.6941 43.6816C22.5629 44.8113 23.9155 45.4627 25.3404 45.4376L25.4625 45.4354C26.3541 45.4197 27.2361 45.6211 28.0326 46.022L28.1417 46.077C29.4146 46.7178 30.9159 46.7178 32.1888 46.077L32.2979 46.022C33.0944 45.6211 33.9764 45.4197 34.868 45.4354L34.9901 45.4376C36.4151 45.4627 37.7676 44.8113 38.6365 43.6816L38.7109 43.5848C39.2545 42.8779 39.9619 42.3139 40.772 41.9412L40.8829 41.8901C42.1776 41.2945 43.1137 40.1207 43.4063 38.726L43.4314 38.6064C43.6144 37.7337 44.007 36.9186 44.5751 36.2313L44.653 36.1371C45.561 35.0387 45.8951 33.5751 45.5535 32.1915L45.5243 32.0729C45.3106 31.2072 45.3106 30.3025 45.5243 29.4368L45.5535 29.3182C45.8951 27.9345 45.561 26.4709 44.653 25.3725L44.5751 25.2784C44.007 24.5911 43.6144 23.776 43.4314 22.9033L43.4063 22.7837C43.1137 21.3889 42.1776 20.2152 40.8829 19.6196L40.772 19.5685C39.9619 19.1958 39.2545 18.6317 38.7109 17.9249L38.6365 17.828C37.7676 16.6984 36.4151 16.047 34.9901 16.0721L34.868 16.0742C33.9764 16.0899 33.0944 15.8886 32.2979 15.4876ZM32.4137 14.9861C30.9993 14.274 29.3312 14.274 27.9169 14.9861L27.8078 15.041C27.0837 15.4056 26.2819 15.5886 25.4713 15.5743L25.3492 15.5722C23.766 15.5443 22.2631 16.268 21.2977 17.5232L21.2233 17.6201C20.7291 18.2627 20.086 18.7755 19.3496 19.1143L19.2386 19.1653C17.8001 19.8272 16.7601 21.1313 16.4349 22.6811L16.4098 22.8006C16.2434 23.594 15.8865 24.335 15.37 24.9598L15.2922 25.0539C14.2833 26.2744 13.9121 27.9006 14.2916 29.438L14.3208 29.5566C14.5151 30.3436 14.5151 31.1661 14.3208 31.9531L14.2916 32.0717C13.9121 33.609 14.2833 35.2353 15.2922 36.4557L15.37 36.5499C15.8865 37.1747 16.2434 37.9157 16.4098 38.7091L16.4349 38.8286C16.7601 40.3784 17.8001 41.6825 19.2386 42.3443L19.3496 42.3954C20.086 42.7342 20.7291 43.247 21.2233 43.8896L21.2977 43.9864C22.2631 45.2417 23.766 45.9654 25.3492 45.9375L25.4713 45.9354C26.2819 45.9211 27.0837 46.1041 27.8078 46.4686L27.9169 46.5236C29.3312 47.2356 30.9993 47.2356 32.4137 46.5236L32.5228 46.4686C33.2468 46.1041 34.0487 45.9211 34.8592 45.9354L34.9813 45.9375C36.5646 45.9654 38.0675 45.2417 39.0328 43.9864L39.1073 43.8896C39.6015 43.247 40.2445 42.7342 40.9809 42.3954L41.0919 42.3443C42.5305 41.6825 43.5705 40.3784 43.8956 38.8286L43.9207 38.7091C44.0871 37.9157 44.444 37.1747 44.9605 36.5499L45.0383 36.4557C46.0473 35.2353 46.4184 33.609 46.039 32.0717L46.0097 31.9531C45.8154 31.1661 45.8154 30.3436 46.0097 29.5566L46.039 29.438C46.4184 27.9006 46.0473 26.2744 45.0383 25.0539L44.9605 24.9598C44.444 24.335 44.0871 23.594 43.9207 22.8006L43.8956 22.6811C43.5705 21.1313 42.5305 19.8272 41.0919 19.1653L40.9809 19.1143C40.2445 18.7755 39.6015 18.2627 39.1073 17.6201L39.0328 17.5232C38.0675 16.268 36.5646 15.5443 34.9813 15.5722L34.8592 15.5743C34.0487 15.5886 33.2468 15.4056 32.5228 15.041L32.4137 14.9861Z" fill="#285141"/>
<path fill-rule="evenodd" clip-rule="evenodd" d="M36.1553 26.154C36.3144 26.2865 36.3359 26.523 36.2033 26.6821L29.0158 35.3071C28.9484 35.3881 28.85 35.4369 28.7447 35.4417C28.6395 35.4464 28.5371 35.4067 28.4626 35.3322L24.1501 31.0197C24.0036 30.8733 24.0036 30.6358 24.1501 30.4894C24.2965 30.3429 24.5339 30.3429 24.6804 30.4894L28.7025 34.5115L35.6271 26.202C35.7597 26.0429 35.9962 26.0214 36.1553 26.154Z" fill="#285141"/>
<path d="M8.06293 41.5151L8.56825 41.231L9.53675 42.9537L13.051 40.9779L13.3512 41.512L9.33167 43.7718L8.06293 41.5151Z" fill="#285141"/>
<path d="M10.8925 36.0441L10.0426 36.7429L10.7342 38.6993L11.8344 38.7086L12.0518 39.3235L7.13115 39.2394L6.90061 38.5873L10.6751 35.4293L10.8925 36.0441ZM10.1236 38.6916L9.57247 37.1327L7.70638 38.6727L10.1236 38.6916Z" fill="#285141"/>
<path d="M5.87794 34.2786C5.8151 33.8572 5.90412 33.4865 6.14499 33.1664C6.38088 32.8426 6.70731 32.6496 7.1243 32.5874C7.53695 32.5259 7.90549 32.6152 8.22994 32.8555C8.55374 33.0913 8.74705 33.4199 8.80989 33.8413L8.96634 34.8903L10.5952 34.6473L10.6856 35.2533L6.12476 35.9335L5.87794 34.2786ZM8.24305 33.9258C8.20547 33.6739 8.08968 33.478 7.89566 33.3382C7.6973 33.1991 7.46998 33.1486 7.2137 33.1868C6.95308 33.2257 6.75038 33.3403 6.6056 33.5306C6.46081 33.721 6.40721 33.9421 6.44478 34.194L6.60123 35.243L8.3995 34.9748L8.24305 33.9258Z" fill="#285141"/>
<path d="M10.3174 28.6044L9.269 28.9385L9.18648 31.0119L10.205 31.4283L10.179 32.0799L5.63979 30.1785L5.66729 29.4874L10.3433 27.9528L10.3174 28.6044ZM8.6222 30.7785L8.68795 29.1264L6.38405 29.8653L8.6222 30.7785Z" fill="#285141"/>
<path d="M6.59097 23.9624L6.73498 23.3737L11.2142 24.4694L11.0702 25.0581L9.05454 24.565L8.52234 26.7407L10.538 27.2337L10.3924 27.8288L5.91321 26.7331L6.05878 26.138L7.95924 26.6029L8.49144 24.4273L6.59097 23.9624Z" fill="#285141"/>
<path d="M8.50628 19.2007L9.03417 19.4403L8.47066 20.682L12.1419 22.348L11.8914 22.8999L8.22021 21.2339L7.65942 22.4696L7.13153 22.2301L8.50628 19.2007Z" fill="#285141"/>
<path d="M14.5317 18.4585L11.7308 16.4637L13.156 20.3902L12.8694 20.7927L9.11334 18.1176L9.46874 17.6186L12.275 19.6172L10.8445 15.6869L11.1311 15.2845L14.8871 17.9595L14.5317 18.4585Z" fill="#285141"/>
<path d="M14.463 11.9658L17.6095 15.3367L17.1665 15.7503L15.9618 14.4597L15.2924 15.0845L15.6255 17.1887L15.1198 17.6606L14.7839 15.5051C14.5018 15.6663 14.1969 15.7226 13.8692 15.674C13.5415 15.6254 13.2668 15.4824 13.0451 15.2448C12.7754 14.9559 12.6472 14.6159 12.6607 14.2248C12.6744 13.8276 12.8257 13.4941 13.1146 13.2244L14.463 11.9658ZM14.6789 14.9002L15.5842 14.0552L14.411 12.7983L13.5057 13.6433C13.342 13.7962 13.2576 13.989 13.2527 14.2219C13.2478 14.4548 13.3263 14.6579 13.4881 14.8312C13.6499 15.0046 13.8487 15.0985 14.0843 15.1128C14.317 15.1239 14.5152 15.053 14.6789 14.9002Z" fill="#285141"/>
<path d="M19.0069 12.1715C18.9046 12.2316 18.7964 12.2468 18.6822 12.2172C18.568 12.1875 18.4808 12.1216 18.4207 12.0194C18.3606 11.9172 18.3454 11.809 18.3751 11.6947C18.4047 11.5805 18.4706 11.4934 18.5729 11.4333C18.6789 11.3709 18.7871 11.3557 18.8975 11.3876C19.0118 11.4172 19.0989 11.4832 19.159 11.5854C19.2191 11.6876 19.2343 11.7958 19.2047 11.9101C19.1788 12.0221 19.1129 12.1092 19.0069 12.1715Z" fill="#285141"/>
<path d="M24.1447 7.06938L25.5656 11.4563L24.9828 11.645L23.7405 7.80965L21.7225 8.46328L22.9648 12.2987L22.382 12.4875L20.9611 8.10056L24.1447 7.06938Z" fill="#285141"/>
<path d="M29.8965 10.3428C29.4785 10.8474 28.937 11.1292 28.2721 11.1884C27.6072 11.2476 27.0245 11.0658 26.5239 10.6429C26.0233 10.2201 25.7436 9.67845 25.6849 9.01792C25.6257 8.35301 25.8053 7.77046 26.2238 7.27028C26.6418 6.76572 27.1833 6.48385 27.8482 6.42469C28.5131 6.36552 29.0959 6.54734 29.5964 6.97016C30.101 7.38821 30.3828 7.92969 30.442 8.5946C30.5008 9.25513 30.319 9.83787 29.8965 10.3428ZM26.907 10.1922C27.2786 10.503 27.7159 10.6361 28.219 10.5913C28.722 10.5465 29.1268 10.3386 29.4333 9.96739C29.7437 9.59145 29.8765 9.15196 29.8318 8.6489C29.7866 8.14147 29.5783 7.73233 29.2067 7.42149C28.8391 7.10589 28.4038 6.97047 27.9008 7.01523C27.3977 7.06 26.9909 7.27035 26.6805 7.64629C26.374 8.01747 26.2434 8.45677 26.2885 8.9642C26.3333 9.46726 26.5395 9.87659 26.907 10.1922Z" fill="#285141"/>
<path d="M34.3515 10.8484L34.8411 10.9147L34.6449 12.3639L34.0378 12.2817L34.1562 11.407L31.1403 10.9988L31.0219 11.8736L30.4148 11.7914L30.6109 10.3422L31.0091 10.3961C31.3397 10.0819 31.5536 9.5657 31.6508 8.84762L31.9741 6.45836L34.8922 6.85328L34.3515 10.8484ZM31.6946 10.4889L33.7444 10.7663L34.2082 7.33905L32.5044 7.10846L32.2561 8.94284C32.1625 9.63481 31.9753 10.1501 31.6946 10.4889Z" fill="#285141"/>
<path d="M34.632 11.451L34.8175 10.9297C35.0883 11.0726 35.3293 11.0698 35.5407 10.9213C35.7576 10.7701 35.9633 10.4214 36.1576 9.87522L37.0343 7.41129L39.9016 8.43151L38.3558 12.776L37.7786 12.5706L39.1301 8.7723L37.4171 8.16282L36.7348 10.0806C36.5964 10.4695 36.4429 10.7831 36.2742 11.0214C36.1111 11.2571 35.9377 11.4168 35.7541 11.5006C35.5745 11.5859 35.3932 11.624 35.21 11.6147C35.0325 11.6028 34.8398 11.5482 34.632 11.451Z" fill="#285141"/>
<path d="M41.329 14.5323L43.1312 11.6036L39.3093 13.2894L38.8885 13.0304L41.3052 9.10319L41.827 9.42427L40.0214 12.3585L43.8467 10.6671L44.2675 10.9261L41.8508 14.8533L41.329 14.5323Z" fill="#285141"/>
<path d="M47.6284 13.8842L48.0667 14.3029L44.8815 17.6373L44.4432 17.2186L45.8766 15.7182L44.257 14.1711L42.8237 15.6715L42.3807 15.2484L45.5659 11.914L46.0089 12.3371L44.6574 13.7519L46.277 15.299L47.6284 13.8842Z" fill="#285141"/>
<path d="M50.7363 17.8797L51.079 18.3796L47.2755 20.9867L46.9328 20.4868L48.6444 19.3136L47.3781 17.4662L45.6665 18.6394L45.3201 18.1341L49.1236 15.527L49.47 16.0323L47.8562 17.1385L49.1225 18.9859L50.7363 17.8797Z" fill="#285141"/>
<path d="M49.6305 24.926C49.0287 24.6669 48.6058 24.2267 48.3619 23.6053C48.118 22.9839 48.1284 22.3736 48.3933 21.7742C48.6581 21.1749 49.0991 20.754 49.7164 20.5117C50.3378 20.2678 50.9473 20.2762 51.5451 20.5369C52.1469 20.7961 52.5698 21.2363 52.8137 21.8577C53.0576 22.4791 53.0472 23.0894 52.7824 23.6888C52.5232 24.2906 52.083 24.7135 51.4616 24.9574C50.8443 25.1997 50.234 25.1893 49.6305 24.926ZM48.9336 22.015C48.7399 22.459 48.7354 22.9161 48.9199 23.3862C49.1045 23.8564 49.418 24.1862 49.8604 24.3758C50.3085 24.5679 50.7676 24.5717 51.2378 24.3871C51.712 24.201 52.0459 23.8859 52.2396 23.4418C52.439 23.0003 52.4464 22.5444 52.2618 22.0743C52.0773 21.6042 51.761 21.2731 51.3128 21.081C50.8704 20.8914 50.4121 20.8897 49.9379 21.0759C49.4678 21.2604 49.133 21.5735 48.9336 22.015Z" fill="#285141"/>
<path d="M49.5657 28.2894C49.4704 27.5977 49.62 26.9941 50.0144 26.4787C50.4095 25.9677 50.9399 25.6663 51.6055 25.5746C52.2712 25.4829 52.8633 25.6296 53.3818 26.0148C53.901 26.4043 54.2082 26.945 54.3035 27.6367C54.361 28.0544 54.3137 28.451 54.1615 28.8266C54.0099 29.2066 53.778 29.5178 53.4656 29.7604L53.086 29.274C53.3204 29.1087 53.4936 28.8854 53.6055 28.604C53.7224 28.3263 53.7593 28.0309 53.7161 27.7176C53.6436 27.1912 53.4146 26.7839 53.0291 26.4956C52.6442 26.2117 52.1973 26.1048 51.6882 26.175C51.1836 26.2445 50.7843 26.4679 50.4905 26.8453C50.1973 27.2271 50.087 27.6812 50.1595 28.2076C50.2027 28.5208 50.3159 28.7956 50.4992 29.0319C50.6874 29.272 50.9145 29.4402 51.1805 29.5365L50.9531 30.1065C50.5874 29.9618 50.278 29.7274 50.025 29.4031C49.7763 29.0783 49.6232 28.7071 49.5657 28.2894Z" fill="#285141"/>
<path d="M54.2892 33.767L53.7105 33.7334L53.7896 32.3721L49.7648 32.1382L49.8 31.5332L53.8247 31.767L53.9035 30.4123L54.4822 30.4459L54.2892 33.767Z" fill="#285141"/>
<path d="M48.9472 36.6754L52.2814 37.5167L49.5274 34.3759L49.6483 33.8969L54.1194 35.0251L53.9696 35.6191L50.629 34.7762L53.3893 37.9186L53.2684 38.3976L48.7973 37.2694L48.9472 36.6754Z" fill="#285141"/>
<path d="M49.3789 40.5278C49.4326 40.4221 49.5155 40.3509 49.6277 40.3143C49.7399 40.2778 49.8489 40.2863 49.9546 40.34C50.0603 40.3938 50.1314 40.4767 50.168 40.5889C50.2046 40.7011 50.196 40.8101 50.1423 40.9158C50.0866 41.0254 50.0037 41.0965 49.8935 41.1292C49.7813 41.1658 49.6723 41.1572 49.5666 41.1035C49.4609 41.0498 49.3897 40.9668 49.3532 40.8546C49.3146 40.7464 49.3232 40.6374 49.3789 40.5278Z" fill="#285141"/>
<path d="M48.1147 47.2533L47.6622 46.8909L48.5146 45.8266L45.3679 43.3063L45.7468 42.8333L48.8935 45.3535L49.7418 44.2943L50.1943 44.6567L48.1147 47.2533Z" fill="#285141"/>
<path d="M45.0866 50.0244L44.625 50.4171L41.6369 46.9049L42.0985 46.5122L43.4431 48.0927L45.1491 46.6414L43.8044 45.0609L44.2711 44.6639L47.2591 48.1761L46.7925 48.5731L45.5247 47.0829L43.8188 48.5342L45.0866 50.0244Z" fill="#285141"/>
<path d="M40.7579 48.127L38.8998 49.1906L38.6118 48.6875L41.0016 47.3196L43.2924 51.3216L40.9312 52.6731L40.6432 52.17L42.4727 51.1228L41.7691 49.8936L40.0825 50.859L39.7978 50.3616L41.4844 49.3962L40.7579 48.127Z" fill="#285141"/>
<path d="M36.8809 51.3527C36.9936 51.3157 37.1026 51.3239 37.2079 51.3771C37.3132 51.4304 37.3843 51.5134 37.4213 51.626C37.4582 51.7387 37.4501 51.8477 37.3968 51.953C37.3435 52.0583 37.2606 52.1294 37.1479 52.1664C37.0311 52.2047 36.9221 52.1966 36.821 52.1419C36.7157 52.0887 36.6445 52.0057 36.6076 51.893C36.5706 51.7804 36.5787 51.6714 36.632 51.5661C36.6811 51.4621 36.7641 51.391 36.8809 51.3527Z" fill="#285141"/>
<path d="M31.4656 50.4557C32.1616 50.3989 32.7559 50.5818 33.2486 51.0042C33.737 51.4271 34.0084 51.9733 34.063 52.6431C34.1176 53.3128 33.9383 53.8958 33.5249 54.3922C33.1072 54.8889 32.5503 55.1656 31.8543 55.2224C31.4341 55.2566 31.0407 55.1874 30.6741 55.0146C30.3032 54.8421 30.0053 54.5933 29.7805 54.2679L30.2871 53.9159C30.4391 54.1591 30.6525 54.3444 30.9273 54.4718C31.198 54.6039 31.491 54.6572 31.8061 54.6315C32.3358 54.5883 32.7552 54.3822 33.0644 54.0133C33.3692 53.6448 33.5007 53.2044 33.459 52.6923C33.4176 52.1846 33.2166 51.7735 32.8561 51.4593C32.4912 51.1453 32.044 51.0099 31.5143 51.0531C31.1992 51.0788 30.9186 51.1766 30.6724 51.3465C30.4223 51.5211 30.2417 51.7385 30.1308 51.9987L29.5743 51.7401C29.7391 51.383 29.9903 51.0871 30.3281 50.8524C30.6662 50.6222 31.0454 50.4899 31.4656 50.4557Z" fill="#285141"/>
<path d="M26.2207 50.6178C26.5769 50.3679 27.0076 50.2762 27.5127 50.3427C28.0177 50.4092 28.4122 50.6095 28.696 50.9436C28.9749 51.2815 29.0819 51.6965 29.0171 52.1885L28.6174 55.2255L28.01 55.1456L28.4063 52.1347C28.4487 51.8125 28.3867 51.543 28.2204 51.3262C28.0534 51.1137 27.7915 50.984 27.4344 50.937C27.0774 50.89 26.7907 50.9475 26.5745 51.1095C26.3577 51.2759 26.2281 51.5202 26.1857 51.8424L25.7894 54.8533L25.1885 54.7742L25.5883 51.7372C25.653 51.2452 25.8638 50.872 26.2207 50.6178Z" fill="#285141"/>
<path d="M24.458 50.4018L22.5607 49.8036L22.735 49.2507L25.2166 50.0331L23.8302 54.431L23.2459 54.2468L24.458 50.4018Z" fill="#285141"/>
<path d="M17.6241 51.877L17.8848 51.3592L19.1027 51.9725L20.9159 48.3717L21.4572 48.6443L19.644 52.2451L20.8561 52.8554L20.5953 53.3732L17.6241 51.877Z" fill="#285141"/>
<path d="M14.3111 49.5364L14.6544 49.0693L15.7531 49.8769L18.1409 46.6285L18.6292 46.9875L16.2414 50.2358L17.3349 51.0396L16.9915 51.5067L14.3111 49.5364Z" fill="#285141"/>
<path d="M13.9376 45.3014C14.0165 45.3899 14.0526 45.4931 14.0458 45.6109C14.039 45.7287 13.9914 45.8271 13.9028 45.906C13.8143 45.9849 13.7112 46.0209 13.5933 46.0142C13.4755 46.0074 13.3772 45.9597 13.2983 45.8712C13.2165 45.7794 13.1804 45.6763 13.1901 45.5617C13.1969 45.4439 13.2445 45.3456 13.333 45.2667C13.4216 45.1878 13.5247 45.1517 13.6425 45.1585C13.7574 45.162 13.8558 45.2096 13.9376 45.3014Z" fill="#285141"/>
</g>
<defs>
<clipPath id="clip0_1_1609">
<rect width="60" height="60" fill="white" transform="translate(0 0.54718)"/>
</clipPath>
</defs>
</svg>
