<svg width="12" height="13" viewBox="0 0 12 13" fill="none" xmlns="http://www.w3.org/2000/svg">
<g clip-path="url(#clip0_1_2212)">
<path d="M7.7854 4.95081L7.73131 4.87718C10.49 2.65005 10.1835 2.31874 10.1835 2.31874C9.913 2.02424 9.62451 1.76656 9.31799 1.54568C8.88526 1.23278 8.41647 0.975095 7.91162 0.80944C5.82009 0.0363854 3.33189 0.643786 1.83536 2.31874C-0.166018 4.50906 -0.202079 7.98781 1.81733 10.2149C3.94492 12.5525 7.56904 12.6998 9.8589 10.5463L9.89497 10.5094L9.93103 10.4726L9.94906 10.4542C9.98512 10.4174 10.0212 10.3806 10.0392 10.3438C10.6883 9.49711 9.71466 7.19635 7.7854 4.95081ZM9.55239 9.92045C9.40814 10.0677 8.79511 10.0861 7.80343 9.55232C6.88388 9.05536 5.85615 8.20868 4.8825 7.17794C4.72023 7.30678 7.4248 5.13487 7.29858 5.2453C8.14601 6.23923 8.86723 7.32519 9.24587 8.22709C9.69663 9.27623 9.6786 9.7916 9.55239 9.92045Z" fill="white" fill-opacity="0.98"/>
</g>
<defs>
<clipPath id="clip0_1_2212">
<rect width="11.3554" height="11.592" fill="white" transform="translate(0.318481 0.477539)"/>
</clipPath>
</defs>
</svg>
